<svg width="18" height="19" viewBox="0 0 18 18" fill="none" xmlns="http://www.w3.org/2000/svg">
<path d="M11.1025 2.60767C13.611 2.60767 15.6445 4.64118 15.6445 7.14966C15.6445 7.5105 15.603 7.86194 15.5234 8.19849C16.9656 8.70393 17.9999 10.0769 18 11.6917C18 13.7356 16.3428 15.3928 14.2988 15.3928H3.70117C1.6572 15.3928 0 13.7356 0 11.6917C6.8789e-05 9.64774 1.65724 7.99048 3.70117 7.99048C3.70137 6.87575 4.60496 5.97192 5.71973 5.97192C6.05887 5.97194 6.37861 6.05559 6.65918 6.20337C7.09452 4.14914 8.91865 2.60779 11.1025 2.60767ZM11.1025 5.1311C9.98776 5.13124 9.08398 6.03485 9.08398 7.14966C9.08398 7.15813 9.08388 7.1666 9.08398 7.17505L6.27734 7.6145C6.15641 7.43575 5.95179 7.31767 5.71973 7.31763C5.34817 7.31763 5.047 7.61895 5.04688 7.99048C5.04688 8.36211 5.3481 8.66333 5.71973 8.66333C6.02587 8.66328 6.28471 8.4588 6.36621 8.17896L9.17188 7.74048C9.19388 7.81245 9.22041 7.88311 9.25 7.95142L4.81836 10.6702C4.54158 10.3676 4.14357 10.1781 3.70117 10.178C2.865 10.178 2.18652 10.8555 2.18652 11.6917C2.18653 12.5278 2.86501 13.2053 3.70117 13.2053C4.31432 13.2052 4.84212 12.8408 5.08008 12.3167L6.89844 12.7532C6.92559 13.2863 7.36643 13.7101 7.90625 13.7102C8.46355 13.7102 8.91578 13.2587 8.91602 12.7014C8.91602 12.144 8.4637 11.6917 7.90625 11.6917C7.5327 11.6917 7.20668 11.8948 7.03223 12.1965L5.21387 11.761C5.21489 11.7382 5.21484 11.7147 5.21484 11.6917C5.21484 11.5037 5.18079 11.3236 5.11816 11.1575L9.54883 8.43872C9.84635 8.79697 10.2658 9.05012 10.7432 9.13599L10.6709 11.0725C10.4303 11.1751 10.2617 11.4136 10.2617 11.6917C10.2617 12.0633 10.5629 12.3645 10.9346 12.3645C11.3062 12.3645 11.6074 12.0633 11.6074 11.6917C11.6074 11.4312 11.4597 11.2049 11.2432 11.093L11.3145 9.15747C11.5659 9.13125 11.8041 9.05841 12.0195 8.94849L13.21 10.6399C12.9471 10.9122 12.7852 11.2833 12.7852 11.6917C12.7852 12.5277 13.4628 13.2052 14.2988 13.2053C15.135 13.2053 15.8135 12.5278 15.8135 11.6917C15.8135 10.8555 15.135 10.178 14.2988 10.178C14.0772 10.178 13.8664 10.2252 13.6768 10.3108L12.4863 8.61938C12.8771 8.25127 13.1211 7.72888 13.1211 7.14966C13.1211 6.03477 12.2174 5.1311 11.1025 5.1311Z" fill="white"/>
</svg>
