<svg width="229" height="40" viewBox="0 0 229 40" fill="none" xmlns="http://www.w3.org/2000/svg">
<path d="M77.2016 25.2507C75.9914 30.1277 71.6638 33.758 65.099 33.758C56.9206 33.758 51.7861 27.9642 51.7861 20.1904C51.7861 12.4898 56.9572 6.62275 65.1357 6.62275C71.7371 6.62275 75.5879 10.033 77.2016 15.13H72.8007C71.407 11.9765 69.1332 10.363 65.1357 10.363C59.5611 10.363 56.2238 14.7266 56.2238 20.1904C56.2238 25.6541 59.5611 30.0177 65.1357 30.0177C69.4266 30.0177 71.7371 28.1109 72.8007 25.2507H77.2016Z" fill="white"/>
<path d="M94.0521 14.8367C93.7221 11.7198 92.1084 10.1797 88.9544 10.1797C86.3872 10.1797 84.1133 11.2797 84.1133 13.9566C84.1133 16.3034 86.5705 17.2935 89.9813 18.2102C94.4189 19.4203 99.1866 20.5204 99.1866 26.1308C99.1866 31.4845 94.0888 33.9046 89.2845 33.9046C83.4899 33.9046 79.0156 31.0078 78.7222 24.774H83.2698C83.3798 28.2943 85.8737 30.2011 89.2845 30.2011C92.2184 30.2011 94.7856 28.881 94.7856 26.1674C94.7856 23.3072 91.8517 22.7572 88.5143 21.8405C84.1867 20.6671 79.7491 19.127 79.6757 13.9933C79.6024 8.96958 84.2967 6.47607 89.0277 6.47607C94.3455 6.47607 98.1597 9.11626 98.4898 14.8367H94.0521Z" fill="white"/>
<path d="M111.17 7.09945C116.854 7.09945 120.448 10.5464 120.448 15.1667C120.448 19.897 116.561 23.4539 111.17 23.4539H106.255V33.2813H101.818V7.09945H111.17ZM110.803 19.7503C114.104 19.7503 116.011 18.1369 116.011 15.2033C116.011 12.2698 114.104 10.803 110.803 10.803H106.255V19.7503H110.803Z" fill="white"/>
<path d="M122.341 33.2813V7.09945H132.317C138.295 7.09945 141.559 10.253 141.559 14.5433C141.559 17.9169 139.395 20.6671 136.314 21.4371C138.551 22.1705 139.395 24.114 140.312 27.1575C141.082 29.541 141.485 31.1545 142.806 32.9146V33.2813H138.038C136.828 31.7045 136.461 29.321 135.727 27.1942C134.884 24.774 133.857 23.0139 130.666 23.0139H126.779V33.2813H122.341ZM126.779 19.347H132.097C135.397 19.347 137.158 17.5868 137.158 14.8733C137.158 12.5632 135.691 10.7297 131.95 10.7297H126.779V19.347Z" fill="white"/>
<path d="M166.092 14.8367C165.762 11.7198 164.148 10.1797 160.994 10.1797C158.427 10.1797 156.153 11.2797 156.153 13.9566C156.153 16.3034 158.61 17.2935 162.021 18.2102C166.458 19.4203 171.226 20.5204 171.226 26.1308C171.226 31.4845 166.128 33.9046 161.324 33.9046C155.529 33.9046 151.055 31.0078 150.762 24.774H155.309C155.419 28.2943 157.913 30.2011 161.324 30.2011C164.258 30.2011 166.825 28.881 166.825 26.1674C166.825 23.3072 163.891 22.7572 160.554 21.8405C156.226 20.6671 151.789 19.127 151.715 13.9933C151.642 8.96958 156.336 6.47607 161.067 6.47607C166.385 6.47607 170.199 9.11626 170.529 14.8367H166.092Z" fill="white"/>
<path d="M185.666 14.3233H189.884V33.2813H185.666V29.651C185.006 31.8878 183.173 33.7946 180.055 33.7946C175.104 33.7946 173.197 30.5311 173.197 26.1674V14.3233H177.451V25.2874C177.451 28.3676 178.405 30.3111 181.082 30.3111C183.686 30.3111 185.666 28.5876 185.666 23.9306V14.3233Z" fill="white"/>
<path d="M197.195 11.3531H192.757V7.17279H197.195V11.3531ZM192.867 33.2813V14.3233H197.085V33.2813H192.867Z" fill="white"/>
<path d="M209.233 17.6235H205.529V26.7542C205.529 28.661 206.079 30.0177 207.693 30.0177H208.83V33.2813H206.813C202.669 33.2813 201.312 30.6044 201.312 27.2675V17.6235H198.378V14.3233H201.312V10.0697L205.382 8.01618H205.529V14.3233H209.233V17.6235Z" fill="white"/>
<path d="M228.167 24.1506V24.9574H213.571C213.864 28.4043 216.064 30.3844 219.035 30.3844C221.199 30.3844 222.996 29.5777 223.693 27.6709H227.91C226.773 31.5212 223.509 33.7946 219.035 33.7946C213.351 33.7946 209.463 29.7244 209.463 23.7473C209.463 17.9902 213.497 13.8099 219.035 13.8099C225.49 13.8099 228.13 18.7969 228.167 24.1506ZM213.644 21.8771H223.95C223.656 18.9069 221.932 17.1101 218.998 17.1101C216.064 17.1101 214.084 18.9803 213.644 21.8771Z" fill="white"/>
<path fill-rule="evenodd" clip-rule="evenodd" d="M26.6426 6.09524C26.6426 9.46154 23.9137 12.1905 20.5474 12.1905C17.1811 12.1905 14.4521 9.46154 14.4521 6.09524C14.4521 2.72893 17.1811 0 20.5474 0C23.9137 0 26.6426 2.72893 26.6426 6.09524ZM40.3573 6.09524C40.3573 9.46154 37.6284 12.1905 34.2621 12.1905C30.8958 12.1905 28.1669 9.46154 28.1669 6.09524C28.1669 2.72893 30.8958 0 34.2621 0C37.6284 0 40.3573 2.72893 40.3573 6.09524ZM20.5474 40C23.9137 40 26.6426 37.2711 26.6426 33.9048C26.6426 30.5385 23.9137 27.8096 20.5474 27.8096C17.1811 27.8096 14.4521 30.5385 14.4521 33.9048C14.4521 37.2711 17.1811 40 20.5474 40ZM12.9288 20.1905C12.9288 23.5568 10.1998 26.2857 6.83352 26.2857C3.46721 26.2857 0.738281 23.5568 0.738281 20.1905C0.738281 16.8242 3.46721 14.0952 6.83352 14.0952C10.1998 14.0952 12.9288 16.8242 12.9288 20.1905ZM34.2621 40C37.6284 40 40.3573 37.2711 40.3573 33.9048C40.3573 30.5385 37.6284 27.8095 34.2621 27.8095C30.8958 27.8095 28.1669 30.5385 28.1669 33.9048C28.1669 37.2711 30.8958 40 34.2621 40ZM20.5474 24.381C23.0721 24.381 25.1188 22.3343 25.1188 19.8096C25.1188 17.2849 23.0721 15.2382 20.5474 15.2382C18.0227 15.2382 15.976 17.2849 15.976 19.8096C15.976 22.3343 18.0227 24.381 20.5474 24.381ZM20.5474 25.9048C23.9137 25.9048 26.6426 23.1759 26.6426 19.8096C26.6426 16.4433 23.9137 13.7144 20.5474 13.7144C17.1811 13.7144 14.4521 16.4433 14.4521 19.8096C14.4521 23.1759 17.1811 25.9048 20.5474 25.9048ZM38.8335 19.8095C38.8335 22.3343 36.7868 24.381 34.2621 24.381C31.7374 24.381 29.6907 22.3343 29.6907 19.8095C29.6907 17.2848 31.7374 15.2381 34.2621 15.2381C36.7868 15.2381 38.8335 17.2848 38.8335 19.8095ZM40.3573 19.8095C40.3573 23.1758 37.6284 25.9048 34.2621 25.9048C30.8958 25.9048 28.1669 23.1758 28.1669 19.8095C28.1669 16.4432 30.8958 13.7143 34.2621 13.7143C37.6284 13.7143 40.3573 16.4432 40.3573 19.8095ZM6.83352 10.6667C9.35825 10.6667 11.4049 8.61997 11.4049 6.09524C11.4049 3.57051 9.35825 1.52381 6.83352 1.52381C4.30879 1.52381 2.26209 3.57051 2.26209 6.09524C2.26209 8.61997 4.30879 10.6667 6.83352 10.6667ZM6.83352 12.1905C10.1998 12.1905 12.9288 9.46154 12.9288 6.09524C12.9288 2.72893 10.1998 0 6.83352 0C3.46721 0 0.738281 2.72893 0.738281 6.09524C0.738281 9.46154 3.46721 12.1905 6.83352 12.1905ZM11.4049 33.9048C11.4049 36.4295 9.35825 38.4762 6.83352 38.4762C4.30879 38.4762 2.26209 36.4295 2.26209 33.9048C2.26209 31.38 4.30879 29.3333 6.83352 29.3333C9.35825 29.3333 11.4049 31.38 11.4049 33.9048ZM12.9288 33.9048C12.9288 37.2711 10.1998 40 6.83352 40C3.46721 40 0.738281 37.2711 0.738281 33.9048C0.738281 30.5385 3.46721 27.8095 6.83352 27.8095C10.1998 27.8095 12.9288 30.5385 12.9288 33.9048Z" fill="#FF0012"/>
</svg>
