<svg width="252" height="45" viewBox="0 0 252 45" fill="none" xmlns="http://www.w3.org/2000/svg">
<path fill-rule="evenodd" clip-rule="evenodd" d="M28.4905 7.20476C28.4905 10.9077 25.4887 13.9095 21.7857 13.9095C18.0828 13.9095 15.081 10.9077 15.081 7.20476C15.081 3.50182 18.0828 0.5 21.7857 0.5C25.4887 0.5 28.4905 3.50182 28.4905 7.20476ZM43.5762 7.20476C43.5762 10.9077 40.5744 13.9095 36.8714 13.9095C33.1685 13.9095 30.1667 10.9077 30.1667 7.20476C30.1667 3.50182 33.1685 0.5 36.8714 0.5C40.5744 0.5 43.5762 3.50182 43.5762 7.20476ZM21.7857 44.5C25.4887 44.5 28.4905 41.4982 28.4905 37.7952C28.4905 34.0923 25.4887 31.0905 21.7857 31.0905C18.0828 31.0905 15.081 34.0923 15.081 37.7952C15.081 41.4982 18.0828 44.5 21.7857 44.5ZM13.4048 22.7095C13.4048 26.4125 10.4029 29.4143 6.7 29.4143C2.99706 29.4143 -0.00476074 26.4125 -0.00476074 22.7095C-0.00476074 19.0066 2.99706 16.0048 6.7 16.0048C10.4029 16.0048 13.4048 19.0066 13.4048 22.7095ZM36.8714 44.5C40.5744 44.5 43.5762 41.4982 43.5762 37.7952C43.5762 34.0923 40.5744 31.0905 36.8714 31.0905C33.1685 31.0905 30.1667 34.0923 30.1667 37.7952C30.1667 41.4982 33.1685 44.5 36.8714 44.5ZM21.7857 27.319C24.5629 27.319 26.8143 25.0677 26.8143 22.2905C26.8143 19.5133 24.5629 17.2619 21.7857 17.2619C19.0085 17.2619 16.7571 19.5133 16.7571 22.2905C16.7571 25.0677 19.0085 27.319 21.7857 27.319ZM21.7857 28.9952C25.4887 28.9952 28.4905 25.9934 28.4905 22.2905C28.4905 18.5875 25.4887 15.5857 21.7857 15.5857C18.0828 15.5857 15.081 18.5875 15.081 22.2905C15.081 25.9934 18.0828 28.9952 21.7857 28.9952ZM41.9 22.2905C41.9 25.0677 39.6486 27.319 36.8714 27.319C34.0942 27.319 31.8429 25.0677 31.8429 22.2905C31.8429 19.5133 34.0942 17.2619 36.8714 17.2619C39.6486 17.2619 41.9 19.5133 41.9 22.2905ZM43.5762 22.2905C43.5762 25.9934 40.5744 28.9952 36.8714 28.9952C33.1685 28.9952 30.1667 25.9934 30.1667 22.2905C30.1667 18.5875 33.1685 15.5857 36.8714 15.5857C40.5744 15.5857 43.5762 18.5875 43.5762 22.2905ZM6.7 12.2333C9.4772 12.2333 11.7286 9.98197 11.7286 7.20476C11.7286 4.42756 9.4772 2.17619 6.7 2.17619C3.9228 2.17619 1.67143 4.42756 1.67143 7.20476C1.67143 9.98197 3.9228 12.2333 6.7 12.2333ZM6.7 13.9095C10.4029 13.9095 13.4048 10.9077 13.4048 7.20476C13.4048 3.50182 10.4029 0.5 6.7 0.5C2.99706 0.5 -0.00476074 3.50182 -0.00476074 7.20476C-0.00476074 10.9077 2.99706 13.9095 6.7 13.9095ZM11.7286 37.7952C11.7286 40.5724 9.4772 42.8238 6.7 42.8238C3.9228 42.8238 1.67143 40.5724 1.67143 37.7952C1.67143 35.018 3.9228 32.7667 6.7 32.7667C9.4772 32.7667 11.7286 35.018 11.7286 37.7952ZM13.4048 37.7952C13.4048 41.4982 10.4029 44.5 6.7 44.5C2.99706 44.5 -0.00476074 41.4982 -0.00476074 37.7952C-0.00476074 34.0923 2.99706 31.0905 6.7 31.0905C10.4029 31.0905 13.4048 34.0923 13.4048 37.7952Z" fill="#FF0012"/>
<path d="M83.1879 18.3375H77.5851C77.4253 17.4406 77.1307 16.6461 76.7012 15.954C76.2718 15.2521 75.7375 14.6575 75.0983 14.1701C74.4591 13.6827 73.73 13.3171 72.9111 13.0734C72.1021 12.82 71.2282 12.6932 70.2895 12.6932C68.6216 12.6932 67.1435 13.1026 65.8551 13.9215C64.5668 14.7306 63.5581 15.9199 62.829 17.4894C62.1 19.0491 61.7354 20.9549 61.7354 23.2067C61.7354 25.4976 62.1 27.4277 62.829 28.9972C63.5681 30.5569 64.5768 31.7365 65.8551 32.5358C67.1435 33.3254 68.6166 33.7203 70.2745 33.7203C71.1933 33.7203 72.0522 33.6033 72.8512 33.3693C73.6601 33.1256 74.3842 32.7698 75.0234 32.3019C75.6725 31.834 76.2168 31.2588 76.6563 30.5764C77.1057 29.8941 77.4153 29.1142 77.5851 28.2368L83.1879 28.2661C82.9782 29.6893 82.5237 31.0249 81.8246 32.2726C81.1355 33.5204 80.2317 34.622 79.1131 35.5773C77.9946 36.5229 76.6862 37.2638 75.1882 37.7999C73.6901 38.3263 72.0272 38.5895 70.1996 38.5895C67.503 38.5895 65.0961 37.9803 62.9788 36.7617C60.8616 35.5432 59.1937 33.7836 57.9753 31.483C56.7568 29.1824 56.1476 26.4237 56.1476 23.2067C56.1476 19.9801 56.7618 17.2213 57.9902 14.9305C59.2187 12.6299 60.8915 10.8703 63.0088 9.65176C65.1261 8.43322 67.523 7.82396 70.1996 7.82396C71.9074 7.82396 73.4953 8.05792 74.9634 8.52583C76.4316 8.99375 77.7399 9.68101 78.8884 10.5876C80.0369 11.4844 80.9807 12.586 81.7198 13.8923C82.4688 15.1888 82.9582 16.6705 83.1879 18.3375Z" fill="white"/>
<path d="M101.938 16.4658C101.798 15.1888 101.209 14.1945 100.17 13.4828C99.1415 12.7712 97.8032 12.4154 96.1553 12.4154C94.9968 12.4154 94.0031 12.586 93.1742 12.9272C92.3452 13.2684 91.711 13.7314 91.2716 14.3163C90.8322 14.9012 90.6075 15.569 90.5975 16.3196C90.5975 16.9435 90.7423 17.4845 91.0319 17.9427C91.3315 18.4008 91.736 18.7908 92.2454 19.1125C92.7547 19.4244 93.319 19.6876 93.9382 19.9021C94.5574 20.1165 95.1816 20.2969 95.8108 20.4431L98.6871 21.145C99.8456 21.4082 100.959 21.764 102.028 22.2124C103.106 22.6608 104.07 23.2262 104.919 23.9086C105.778 24.591 106.457 25.4147 106.956 26.3798C107.456 27.3449 107.706 28.4757 107.706 29.7722C107.706 31.5269 107.246 33.072 106.327 34.4075C105.408 35.7333 104.08 36.7715 102.342 37.5221C100.615 38.263 98.5223 38.6334 96.0655 38.6334C93.6785 38.6334 91.6062 38.2727 89.8484 37.5513C88.1007 36.83 86.7324 35.7771 85.7437 34.3929C84.765 33.0086 84.2356 31.3222 84.1558 29.3335H89.6237C89.7036 30.3766 90.0332 31.2442 90.6125 31.9363C91.1917 32.6284 91.9457 33.1451 92.8746 33.4863C93.8133 33.8275 94.862 33.9981 96.0205 33.9981C97.229 33.9981 98.2876 33.8226 99.1964 33.4717C100.115 33.111 100.834 32.6138 101.354 31.9802C101.873 31.3368 102.138 30.5862 102.148 29.7283C102.138 28.9485 101.903 28.3051 101.444 27.7982C100.984 27.2815 100.34 26.8526 99.511 26.5114C98.6921 26.1605 97.7333 25.8485 96.6347 25.5756L93.1442 24.6982C90.6175 24.0646 88.62 23.1044 87.1519 21.8176C85.6938 20.5211 84.9647 18.8005 84.9647 16.6559C84.9647 14.8915 85.4541 13.3464 86.4328 12.0206C87.4216 10.6948 88.7648 9.66638 90.4627 8.93526C92.1605 8.19439 94.083 7.82396 96.2302 7.82396C98.4075 7.82396 100.315 8.19439 101.953 8.93526C103.601 9.66638 104.894 10.6851 105.833 11.9913C106.772 13.2879 107.256 14.7794 107.286 16.4658H101.938Z" fill="white"/>
<path d="M109.647 38.1801V8.23339H121.152C123.509 8.23339 125.487 8.66231 127.085 9.52016C128.693 10.378 129.906 11.5575 130.725 13.0588C131.554 14.5503 131.968 16.2465 131.968 18.1474C131.968 20.0678 131.554 21.7737 130.725 23.2652C129.896 24.7567 128.673 25.9314 127.055 26.7892C125.437 27.6373 123.444 28.0614 121.077 28.0614H113.452V23.6015H120.328C121.707 23.6015 122.835 23.3676 123.714 22.8997C124.593 22.4318 125.242 21.7884 125.662 20.9695C126.091 20.1507 126.306 19.2099 126.306 18.1474C126.306 17.0848 126.091 16.149 125.662 15.3399C125.242 14.5308 124.588 13.902 123.699 13.4536C122.82 12.9954 121.687 12.7663 120.298 12.7663H115.205V38.1801H109.647Z" fill="white"/>
<path d="M133.783 38.1801V8.23339H145.288C147.645 8.23339 149.622 8.63306 151.22 9.43242C152.828 10.2318 154.042 11.3528 154.861 12.7956C155.69 14.2286 156.104 15.9004 156.104 17.8111C156.104 19.7315 155.685 21.3984 154.846 22.8119C154.017 24.2157 152.793 25.3026 151.175 26.0727C149.557 26.8331 147.57 27.2133 145.213 27.2133H137.019V22.7096H144.464C145.842 22.7096 146.971 22.5244 147.85 22.1539C148.729 21.7737 149.378 21.223 149.797 20.5016C150.227 19.7705 150.441 18.8736 150.441 17.8111C150.441 16.7485 150.227 15.8419 149.797 15.0913C149.368 14.3309 148.714 13.7558 147.835 13.3659C146.956 12.9662 145.822 12.7663 144.434 12.7663H139.341V38.1801H133.783ZM149.632 24.6105L157.228 38.1801H151.026L143.565 24.6105H149.632Z" fill="white"/>
<path d="M161.308 38.5018C160.399 38.5018 159.62 38.1898 158.971 37.5659C158.322 36.9421 158.002 36.1817 158.012 35.2849C158.002 34.4075 158.322 33.6569 158.971 33.033C159.62 32.4091 160.399 32.0972 161.308 32.0972C162.187 32.0972 162.951 32.4091 163.6 33.033C164.259 33.6569 164.594 34.4075 164.604 35.2849C164.594 35.8795 164.434 36.4205 164.124 36.9079C163.825 37.3954 163.425 37.7853 162.926 38.0777C162.436 38.3604 161.897 38.5018 161.308 38.5018Z" fill="white"/>
<path d="M167.429 38.1801V8.23339H172.852V19.4342H173.077C173.356 18.8883 173.751 18.3082 174.26 17.6941C174.77 17.0702 175.459 16.5389 176.328 16.1002C177.196 15.6518 178.305 15.4276 179.653 15.4276C181.431 15.4276 183.034 15.8712 184.462 16.7583C185.9 17.6356 187.039 18.937 187.878 20.6624C188.727 22.3781 189.151 24.4838 189.151 26.9793C189.151 29.4456 188.737 31.5415 187.908 33.267C187.079 34.9924 185.95 36.3084 184.522 37.215C183.094 38.1216 181.476 38.5749 179.668 38.5749C178.35 38.5749 177.256 38.3604 176.387 37.9315C175.519 37.5026 174.819 36.9859 174.29 36.3815C173.771 35.7674 173.366 35.1874 173.077 34.6415H172.762V38.1801H167.429ZM172.747 26.9501C172.747 28.4026 172.957 29.6747 173.376 30.7665C173.806 31.8583 174.42 32.7113 175.219 33.3254C176.028 33.9298 177.007 34.232 178.155 34.232C179.354 34.232 180.357 33.9201 181.166 33.2962C181.975 32.6626 182.585 31.7998 182.994 30.708C183.413 29.6065 183.623 28.3538 183.623 26.9501C183.623 25.5561 183.418 24.318 183.009 23.236C182.6 22.1539 181.99 21.3058 181.181 20.6917C180.372 20.0775 179.364 19.7705 178.155 19.7705C176.997 19.7705 176.013 20.0678 175.204 20.6624C174.395 21.2571 173.781 22.0906 173.361 23.1629C172.952 24.2352 172.747 25.4976 172.747 26.9501Z" fill="white"/>
<path d="M205.414 28.734V15.7201H210.837V38.1801H205.579V34.1882H205.339C204.82 35.4457 203.966 36.4741 202.778 37.2735C201.599 38.0729 200.146 38.4725 198.418 38.4725C196.91 38.4725 195.577 38.146 194.418 37.4928C193.27 36.83 192.371 35.8697 191.722 34.6122C191.073 33.3449 190.748 31.8145 190.748 30.0208V15.7201H196.171V29.2019C196.171 30.6252 196.571 31.756 197.37 32.5943C198.169 33.4327 199.217 33.8519 200.516 33.8519C201.315 33.8519 202.089 33.6618 202.838 33.2816C203.587 32.9014 204.201 32.336 204.68 31.5854C205.17 30.825 205.414 29.8746 205.414 28.734Z" fill="white"/>
<path d="M213.401 38.1801V15.7201H218.824V38.1801H213.401ZM216.127 12.5324C215.268 12.5324 214.529 12.2546 213.91 11.6989C213.291 11.1335 212.981 10.456 212.981 9.66638C212.981 8.86702 213.291 8.18952 213.91 7.63387C214.529 7.06847 215.268 6.78577 216.127 6.78577C216.996 6.78577 217.735 7.06847 218.344 7.63387C218.964 8.18952 219.273 8.86702 219.273 9.66638C219.273 10.456 218.964 11.1335 218.344 11.6989C217.735 12.2546 216.996 12.5324 216.127 12.5324Z" fill="white"/>
<path d="M226.81 8.23339V38.1801H221.387V8.23339H226.81Z" fill="white"/>
<path d="M237.912 38.5749C236.105 38.5749 234.487 38.1216 233.059 37.215C231.63 36.3084 230.502 34.9924 229.673 33.267C228.844 31.5415 228.43 29.4456 228.43 26.9793C228.43 24.4838 228.849 22.3781 229.688 20.6624C230.537 18.937 231.68 17.6356 233.119 16.7583C234.557 15.8712 236.16 15.4276 237.927 15.4276C239.276 15.4276 240.384 15.6518 241.253 16.1002C242.122 16.5389 242.811 17.0702 243.32 17.6941C243.83 18.3082 244.224 18.8883 244.504 19.4342H244.729V8.23339H250.167V38.1801H244.834V34.6415H244.504C244.224 35.1874 243.82 35.7674 243.29 36.3815C242.761 36.9859 242.062 37.5026 241.193 37.9315C240.324 38.3604 239.231 38.5749 237.912 38.5749ZM239.425 34.232C240.574 34.232 241.553 33.9298 242.362 33.3254C243.171 32.7113 243.785 31.8583 244.204 30.7665C244.624 29.6747 244.834 28.4026 244.834 26.9501C244.834 25.4976 244.624 24.2352 244.204 23.1629C243.795 22.0906 243.186 21.2571 242.377 20.6624C241.578 20.0678 240.594 19.7705 239.425 19.7705C238.217 19.7705 237.208 20.0775 236.399 20.6917C235.59 21.3058 234.981 22.1539 234.572 23.236C234.162 24.318 233.957 25.5561 233.957 26.9501C233.957 28.3538 234.162 29.6065 234.572 30.708C234.991 31.7998 235.605 32.6626 236.414 33.2962C237.233 33.9201 238.237 34.232 239.425 34.232Z" fill="white"/>
</svg>
